<?xml version="1.0" encoding="UTF-8" standalone="no"?>
<!DOCTYPE svg PUBLIC "-//W3C//DTD SVG 1.0//EN" "http://www.w3.org/TR/2001/PR-SVG-20010719/DTD/svg10.dtd">
<svg width="23cm" height="17cm" viewBox="-15 6 452 329" xmlns="http://www.w3.org/2000/svg" xmlns:xlink="http://www.w3.org/1999/xlink">
  <g>
    <polygon style="fill: #ffffff" points="7.9,7.6 164,7.6 164,163.7 124.975,202.725 7.9,202.725 "/>
    <polygon style="fill: none; fill-opacity:0; stroke-width: 2; stroke: #000000" points="7.9,7.6 164,7.6 164,163.7 124.975,202.725 7.9,202.725 "/>
    <polygon style="fill: none; fill-opacity:0; stroke-width: 0.2; stroke: #aaaaaa" points="7.9,7.6 164,7.6 164,163.7 124.975,202.725 7.9,202.725 "/>
  </g>
  <text font-size="12.8" style="fill: #000000;text-anchor:start;font-family:sans-serif;font-style:normal;font-weight:normal" x="52.8" y="51.5">
    <tspan x="52.8" y="51.5"> Metadata </tspan>
    <tspan x="52.8" y="67.5">Document</tspan>
    <tspan x="52.8" y="83.5"></tspan>
    <tspan x="52.8" y="99.5"> Dataset X</tspan>
  </text>
  <g>
    <line style="fill: none; fill-opacity:0; stroke-width: 2; stroke: #000000" x1="164" y1="105.162" x2="285.074" y2="105.944"/>
    <polyline style="fill: none; fill-opacity:0; stroke-width: 2; stroke: #000000" points="277.278,110.893 287.31,105.958 277.342,100.894 "/>
  </g>
  <text font-size="12.8" style="fill: #000000;text-anchor:start;font-family:sans-serif;font-style:normal;font-weight:normal" x="173.85" y="90">
    <tspan x="173.85" y="90">has_query_service</tspan>
  </text>
  <g>
    <ellipse style="fill: #ffffd6" cx="362.423" cy="105.973" rx="72.8771" ry="32.8225"/>
    <ellipse style="fill: none; fill-opacity:0; stroke-width: 2; stroke: #000000" cx="362.423" cy="105.973" rx="72.8771" ry="32.8225"/>
    <ellipse style="fill: none; fill-opacity:0; stroke-width: 0.2; stroke: #aaaaaa" cx="362.423" cy="105.973" rx="72.8771" ry="32.8225"/>
  </g>
  <text font-size="12.8" style="fill: #000000;text-anchor:start;font-family:sans-serif;font-style:normal;font-weight:normal" x="317.952" y="111.95">
    <tspan x="317.952" y="111.95">Web Service Z</tspan>
  </text>
  <g>
    <line style="fill: none; fill-opacity:0; stroke-width: 2; stroke-dasharray: 4; stroke: #000000" x1="80" y1="204" x2="80" y2="248.528"/>
    <polyline style="fill: none; fill-opacity:0; stroke-width: 2; stroke: #000000" points="75,240.764 80,250.764 85,240.764 "/>
  </g>
  <text font-size="12.7998" style="fill: #000000;text-anchor:start;font-family:sans-serif;font-style:normal;font-weight:normal" x="88" y="231">
    <tspan x="88" y="231">inferred</tspan>
  </text>
  <g>
    <path style="fill: #ffffff" d="M 43 252 L 113,252 C 148,252 148,252 148,267 L 148,297 C 148,312 148,312 113,312 L 43,312 C 8,312 8,312 8,297 L 8,267 C 8,252 8,252 43,252z"/>
    <path style="fill: none; fill-opacity:0; stroke-width: 2; stroke: #000000" d="M 43 252 L 113,252 C 148,252 148,252 148,267 L 148,297 C 148,312 148,312 113,312 L 43,312 C 8,312 8,312 8,297 L 8,267 C 8,252 8,252 43,252"/>
    <text font-size="12.7998" style="fill: #000000;text-anchor:start;font-family:sans-serif;font-style:normal;font-weight:normal" x="25" y="276.9">
      <tspan x="25" y="276.9">PROV DM </tspan>
      <tspan x="25" y="292.9">Class Object</tspan>
    </text>
  </g>
</svg>
