<?xml version="1.0" encoding="UTF-8" standalone="no"?>
<!DOCTYPE svg PUBLIC "-//W3C//DTD SVG 1.0//EN" "http://www.w3.org/TR/2001/PR-SVG-20010719/DTD/svg10.dtd">
<svg width="23cm" height="13cm" viewBox="1 1 455 249" xmlns="http://www.w3.org/2000/svg" xmlns:xlink="http://www.w3.org/1999/xlink">
  <g>
    <ellipse style="fill: #ffffd6" cx="64.586" cy="222.199" rx="59.286" ry="26.7013"/>
    <ellipse style="fill: none; fill-opacity:0; stroke-width: 2; stroke: #000000" cx="64.586" cy="222.199" rx="59.286" ry="26.7013"/>
    <ellipse style="fill: none; fill-opacity:0; stroke-width: 0.2; stroke: #aaaaaa" cx="64.586" cy="222.199" rx="59.286" ry="26.7013"/>
  </g>
  <g>
    <rect style="fill: #c4bfff" x="162.002" y="123.25" width="116.347" height="58.1733"/>
    <rect style="fill: none; fill-opacity:0; stroke-width: 2; stroke: #000000" x="162.002" y="123.25" width="116.347" height="58.1733"/>
    <rect style="fill: none; fill-opacity:0; stroke-width: 0.2; stroke: #aaaaaa" x="162.002" y="123.25" width="116.347" height="58.1733"/>
  </g>
  <g>
    <ellipse style="fill: #ffffd6" cx="396.586" cy="151.337" rx="59.286" ry="26.7013"/>
    <ellipse style="fill: none; fill-opacity:0; stroke-width: 2; stroke: #000000" cx="396.586" cy="151.337" rx="59.286" ry="26.7013"/>
    <ellipse style="fill: none; fill-opacity:0; stroke-width: 0.2; stroke: #aaaaaa" cx="396.586" cy="151.337" rx="59.286" ry="26.7013"/>
  </g>
  <g>
    <ellipse style="fill: #ffffd6" cx="62.186" cy="85.3367" rx="59.286" ry="26.7013"/>
    <ellipse style="fill: none; fill-opacity:0; stroke-width: 2; stroke: #000000" cx="62.186" cy="85.3367" rx="59.286" ry="26.7013"/>
    <ellipse style="fill: none; fill-opacity:0; stroke-width: 0.2; stroke: #aaaaaa" cx="62.186" cy="85.3367" rx="59.286" ry="26.7013"/>
  </g>
  <text font-size="12.8" style="fill: #000000;text-anchor:start;font-family:sans-serif;font-style:normal;font-weight:normal" x="31.7068" y="89.25">
    <tspan x="31.7068" y="89.25">Input Data</tspan>
  </text>
  <text font-size="12.8" style="fill: #000000;text-anchor:start;font-family:sans-serif;font-style:normal;font-weight:normal" x="358.706" y="154.8">
    <tspan x="358.706" y="154.8">Output Data</tspan>
  </text>
  <text font-size="12.8" style="fill: #000000;text-anchor:start;font-family:sans-serif;font-style:normal;font-weight:normal" x="192.707" y="156.8">
    <tspan x="192.707" y="156.8">Activity X</tspan>
  </text>
  <g>
    <line style="fill: none; fill-opacity:0; stroke-width: 2; stroke: #000000" x1="162.002" y1="152.337" x2="123.787" y2="89.1632"/>
    <polyline style="fill: none; fill-opacity:0; stroke-width: 2; stroke: #000000" points="132.083,93.2183 122.629,87.25 123.527,98.3942 "/>
  </g>
  <g>
    <line style="fill: none; fill-opacity:0; stroke-width: 2; stroke: #000000" x1="337.3" y1="151.337" x2="282.82" y2="152.261"/>
    <polyline style="fill: none; fill-opacity:0; stroke-width: 2; stroke: #000000" points="290.498,147.13 280.584,152.299 290.667,157.128 "/>
  </g>
  <text font-size="12.8" style="fill: #000000;text-anchor:start;font-family:sans-serif;font-style:normal;font-weight:normal" x="140.707" y="99.8">
    <tspan x="140.707" y="99.8">used</tspan>
  </text>
  <text font-size="12.8" style="fill: #000000;text-anchor:start;font-family:sans-serif;font-style:normal;font-weight:normal" x="264.706" y="115.8">
    <tspan x="264.706" y="115.8">wasGeneratedBy</tspan>
  </text>
  <text font-size="12.8" style="fill: #000000;text-anchor:start;font-family:sans-serif;font-style:normal;font-weight:normal" x="268" y="103">
    <tspan x="268" y="103"></tspan>
  </text>
  <g>
    <ellipse style="fill: #ffffd6" cx="62.186" cy="152.601" rx="59.286" ry="26.7013"/>
    <ellipse style="fill: none; fill-opacity:0; stroke-width: 2; stroke: #000000" cx="62.186" cy="152.601" rx="59.286" ry="26.7013"/>
    <ellipse style="fill: none; fill-opacity:0; stroke-width: 0.2; stroke: #aaaaaa" cx="62.186" cy="152.601" rx="59.286" ry="26.7013"/>
  </g>
  <g>
    <line style="fill: none; fill-opacity:0; stroke-width: 2; stroke: #000000" x1="162.002" y1="152.337" x2="125.944" y2="152.572"/>
    <polyline style="fill: none; fill-opacity:0; stroke-width: 2; stroke: #000000" points="133.675,147.522 123.708,152.587 133.74,157.521 "/>
  </g>
  <text font-size="12.8" style="fill: #000000;text-anchor:start;font-family:sans-serif;font-style:normal;font-weight:normal" x="35.6" y="157.7">
    <tspan x="35.6" y="157.7">Methods</tspan>
  </text>
  <g>
    <polygon style="fill: #ffd26d" points="219,10.1973 264.333,28.3307 264.333,64.5973 173.667,64.5973 173.667,28.3307 "/>
    <polygon style="fill: none; fill-opacity:0; stroke-width: 2; stroke: #000000" points="219,10.1973 264.333,28.3307 264.333,64.5973 173.667,64.5973 173.667,28.3307 "/>
    <polygon style="fill: none; fill-opacity:0; stroke-width: 0.2; stroke: #aaaaaa" points="219,10.1973 264.333,28.3307 264.333,64.5973 173.667,64.5973 173.667,28.3307 "/>
  </g>
  <g>
    <line style="fill: none; fill-opacity:0; stroke-width: 2; stroke: #000000" x1="162.002" y1="152.337" x2="126.015" y2="218.273"/>
    <polyline style="fill: none; fill-opacity:0; stroke-width: 2; stroke: #000000" points="125.345,209.063 124.943,220.236 134.123,213.854 "/>
  </g>
  <text font-size="12.8" style="fill: #000000;text-anchor:start;font-family:sans-serif;font-style:normal;font-weight:normal" x="45.3" y="226.397">
    <tspan x="45.3" y="226.397">Config</tspan>
  </text>
  <g>
    <line style="fill: none; fill-opacity:0; stroke-width: 2; stroke: #000000" x1="220.175" y1="123.25" x2="219.09" y2="69.0686"/>
    <polyline style="fill: none; fill-opacity:0; stroke-width: 2; stroke: #000000" points="224.244,76.7308 219.045,66.8329 214.246,76.9311 "/>
  </g>
  <text font-size="12.7998" style="fill: #000000;text-anchor:start;font-family:sans-serif;font-style:normal;font-weight:normal" x="195" y="46.5973">
    <tspan x="195" y="46.5973">Agent Y</tspan>
  </text>
  <text font-size="12.8" style="fill: #000000;text-anchor:start;font-family:sans-serif;font-style:normal;font-weight:normal" x="230.3" y="86.3973">
    <tspan x="230.3" y="86.3973">wasAssociatedWith</tspan>
  </text>
  <g>
    <polygon style="fill: #ffd26d" points="383.633,11.5744 428.967,29.7077 428.967,65.9744 338.3,65.9744 338.3,29.7077 "/>
    <polygon style="fill: none; fill-opacity:0; stroke-width: 2; stroke: #000000" points="383.633,11.5744 428.967,29.7077 428.967,65.9744 338.3,65.9744 338.3,29.7077 "/>
    <polygon style="fill: none; fill-opacity:0; stroke-width: 0.2; stroke: #aaaaaa" points="383.633,11.5744 428.967,29.7077 428.967,65.9744 338.3,65.9744 338.3,29.7077 "/>
  </g>
  <g>
    <line style="fill: none; fill-opacity:0; stroke-width: 2; stroke: #000000" x1="264.333" y1="46.464" x2="333.829" y2="47.7578"/>
    <polyline style="fill: none; fill-opacity:0; stroke-width: 2; stroke: #000000" points="325.973,52.6124 336.064,47.7994 326.159,42.6141 "/>
  </g>
  <text font-size="12.7998" style="fill: #000000;text-anchor:start;font-family:sans-serif;font-style:normal;font-weight:normal" x="358.3" y="48.3973">
    <tspan x="358.3" y="48.3973">Agent Z</tspan>
  </text>
  <text font-size="12.8" style="fill: #000000;text-anchor:start;font-family:sans-serif;font-style:normal;font-weight:normal" x="247.3" y="13.3973">
    <tspan x="247.3" y="13.3973">actedOnBehalfOf</tspan>
  </text>
</svg>
