<?xml version="1.0" encoding="UTF-8" standalone="no"?>
<!DOCTYPE svg PUBLIC "-//W3C//DTD SVG 1.0//EN" "http://www.w3.org/TR/2001/PR-SVG-20010719/DTD/svg10.dtd">
<svg width="24cm" height="7cm" viewBox="1 2 469 123" xmlns="http://www.w3.org/2000/svg" xmlns:xlink="http://www.w3.org/1999/xlink">
  <g>
    <rect style="fill: #c4bfff" x="169.003" y="15.25" width="116.347" height="58.1733"/>
    <rect style="fill: none; fill-opacity:0; stroke-width: 2; stroke: #000000" x="169.003" y="15.25" width="116.347" height="58.1733"/>
    <rect style="fill: none; fill-opacity:0; stroke-width: 0.2; stroke: #aaaaaa" x="169.003" y="15.25" width="116.347" height="58.1733"/>
  </g>
  <g>
    <ellipse style="fill: #ffffd6" cx="410.586" cy="44.3367" rx="59.286" ry="26.7013"/>
    <ellipse style="fill: none; fill-opacity:0; stroke-width: 2; stroke: #000000" cx="410.586" cy="44.3367" rx="59.286" ry="26.7013"/>
    <ellipse style="fill: none; fill-opacity:0; stroke-width: 0.2; stroke: #aaaaaa" cx="410.586" cy="44.3367" rx="59.286" ry="26.7013"/>
  </g>
  <g>
    <ellipse style="fill: #ffffd6" cx="62.186" cy="44.3367" rx="59.286" ry="26.7013"/>
    <ellipse style="fill: none; fill-opacity:0; stroke-width: 2; stroke: #000000" cx="62.186" cy="44.3367" rx="59.286" ry="26.7013"/>
    <ellipse style="fill: none; fill-opacity:0; stroke-width: 0.2; stroke: #aaaaaa" cx="62.186" cy="44.3367" rx="59.286" ry="26.7013"/>
  </g>
  <text font-size="12.8" style="fill: #000000;text-anchor:start;font-family:sans-serif;font-style:normal;font-weight:normal" x="31.7068" y="48.25">
    <tspan x="31.7068" y="48.25">Sound File</tspan>
  </text>
  <text font-size="12.8" style="fill: #000000;text-anchor:start;font-family:sans-serif;font-style:normal;font-weight:normal" x="362.706" y="46.8">
    <tspan x="362.706" y="46.8">Freq. Spectrum</tspan>
  </text>
  <text font-size="12.8" style="fill: #000000;text-anchor:start;font-family:sans-serif;font-style:normal;font-weight:normal" x="192.707" y="47.8">
    <tspan x="192.707" y="47.8">Activity X</tspan>
  </text>
  <g>
    <line style="fill: none; fill-opacity:0; stroke-width: 2; stroke: #000000" x1="169.003" y1="44.3367" x2="125.944" y2="44.3367"/>
    <polyline style="fill: none; fill-opacity:0; stroke-width: 2; stroke: #000000" points="133.708,39.3367 123.708,44.3367 133.708,49.3367 "/>
  </g>
  <g>
    <line style="fill: none; fill-opacity:0; stroke-width: 2; stroke: #000000" x1="285.35" y1="44.3367" x2="346.828" y2="44.3367"/>
    <polyline style="fill: none; fill-opacity:0; stroke-width: 2; stroke: #000000" points="339.064,49.3367 349.064,44.3367 339.064,39.3367 "/>
  </g>
  <text font-size="12.8" style="fill: #000000;text-anchor:start;font-family:sans-serif;font-style:normal;font-weight:normal" x="121.707" y="18.8">
    <tspan x="121.707" y="18.8">used</tspan>
  </text>
  <text font-size="12.8" style="fill: #000000;text-anchor:start;font-family:sans-serif;font-style:normal;font-weight:normal" x="295.706" y="14.8">
    <tspan x="295.706" y="14.8">generated</tspan>
  </text>
  <text font-size="12.7998" style="fill: #000000;text-anchor:start;font-family:sans-serif;font-style:normal;font-weight:normal" x="168" y="122">
    <tspan x="168" y="122">"Fourier Transform"</tspan>
  </text>
  <g>
    <line style="fill: none; fill-opacity:0; stroke-width: 2; stroke: #000000" x1="227.177" y1="73.4233" x2="226.148" y2="104.53"/>
    <polyline style="fill: none; fill-opacity:0; stroke-width: 2; stroke: #000000" points="221.407,96.6053 226.074,106.765 231.402,96.9359 "/>
  </g>
  <text font-size="12.8" style="fill: #000000;text-anchor:start;font-family:sans-serif;font-style:normal;font-weight:normal" x="241.3" y="94.8">
    <tspan x="241.3" y="94.8">rdfs:comment</tspan>
  </text>
  <text font-size="12.7998" style="fill: #000000;text-anchor:start;font-family:sans-serif;font-style:normal;font-weight:normal" x="268" y="91">
    <tspan x="268" y="91"></tspan>
  </text>
</svg>
